<svg width="24" height="24" viewBox="0 0 24 24" fill="none" xmlns="http://www.w3.org/2000/svg">
<path d="M19.875 20.6252C19.7765 20.6253 19.679 20.6059 19.588 20.5682C19.497 20.5305 19.4143 20.4752 19.3448 20.4055L3.40727 4.46796C3.33761 4.39832 3.28235 4.31565 3.24464 4.22466C3.20693 4.13367 3.18752 4.03615 3.1875 3.93765C3.18746 3.73873 3.26645 3.54795 3.40708 3.40727C3.54771 3.26659 3.73847 3.18754 3.93739 3.1875C4.1363 3.18746 4.32709 3.26645 4.46777 3.40708L20.4053 19.3446C20.5103 19.4495 20.5818 19.5831 20.6108 19.7286C20.6398 19.8742 20.625 20.025 20.5682 20.1621C20.5114 20.2992 20.4153 20.4164 20.2919 20.4988C20.1685 20.5813 20.0234 20.6252 19.875 20.6252Z" fill="#7B8BAF"/>
<path d="M3.93746 20.8123C3.78915 20.8123 3.64418 20.7683 3.52087 20.6859C3.39756 20.6035 3.30146 20.4863 3.2447 20.3493C3.18795 20.2123 3.1731 20.0615 3.20202 19.9161C3.23095 19.7706 3.30236 19.637 3.40721 19.5321L19.5322 3.40708C19.6729 3.26645 19.8637 3.18746 20.0626 3.1875C20.2615 3.18754 20.4523 3.26659 20.5929 3.40727C20.7335 3.54795 20.8125 3.73873 20.8125 3.93765C20.8124 4.13657 20.7334 4.32733 20.5927 4.46796L4.46771 20.593C4.39813 20.6626 4.31546 20.7179 4.22447 20.7555C4.13347 20.7932 4.03594 20.8125 3.93746 20.8123Z" fill="#7B8BAF"/>
</svg>
