<svg width="311" height="40" viewBox="0 0 311 40" fill="none" xmlns="http://www.w3.org/2000/svg">
<g clip-path="url(#clip0_731_693)">
<path d="M23.72 6.4917L18.9996 9.28869C18.1164 7.75626 17.2766 6.75958 16.4778 6.2914C15.6452 5.75807 14.5713 5.49261 13.2561 5.49261C11.6416 5.49261 10.2998 5.95113 9.23554 6.86576C8.17129 7.7635 7.63795 8.89774 7.63795 10.2612C7.63795 12.1436 9.03524 13.6567 11.8322 14.8054L15.6766 16.3789C18.8066 17.6434 21.0944 19.1879 22.5423 21.01C23.9903 22.832 24.7143 25.0667 24.7143 27.714C24.7143 31.2591 23.5318 34.1912 21.1692 36.5032C18.7873 38.8344 15.8334 40 12.3052 40C8.96043 40 6.19723 39.0106 4.01563 37.0293C1.86782 35.048 0.528451 32.2606 -0.00488281 28.6649L5.88833 27.3665C6.15379 29.6302 6.62197 31.1964 7.28562 32.0603C8.48501 33.7255 10.2322 34.5581 12.5297 34.5581C14.3444 34.5581 15.8503 33.9499 17.0497 32.736C18.2491 31.5222 18.8476 29.9801 18.8476 28.117C18.8476 27.3689 18.7438 26.6811 18.5363 26.0561C18.3288 25.4311 18.003 24.8567 17.5613 24.333C17.1197 23.8094 16.5502 23.3195 15.8503 22.8609C15.1505 22.4024 14.3179 21.9656 13.3526 21.5505L9.63132 20.0036C4.36073 17.7689 1.72302 14.5062 1.72302 10.213C1.72302 7.31704 2.83071 4.89412 5.04368 2.94661C7.25666 0.982202 10.0126 0 13.3091 0C17.7544 0 21.2247 2.16471 23.7224 6.4917H23.72Z" fill="black"/>
<path d="M47.7369 15.8042H64.3667V0.723633H70.1851V39.2757H64.3667V21.2727H47.7369V39.2757H41.9185V0.723633H47.7369V15.8042Z" fill="black"/>
<path d="M141.41 22.8461L153.347 39.2757H146.23L135.218 23.4953H134.168V39.2757H128.35V0.723633H135.167C140.262 0.723633 143.94 1.6817 146.203 3.59543C148.701 5.72635 149.949 8.53781 149.949 12.0346C149.949 14.7665 149.167 17.1122 147.601 19.0766C146.037 21.041 143.971 22.2983 141.408 22.8461H141.41ZM134.168 18.4274H136.017C141.526 18.4274 144.282 16.3206 144.282 12.1095C144.282 8.16375 141.601 6.19211 136.241 6.19211H134.168V18.4274Z" fill="black"/>
<path d="M174.161 23.6208V39.2757H168.343V0.723633H174.936C178.165 0.723633 180.604 0.948067 182.253 1.39694C183.918 1.8458 185.383 2.69528 186.647 3.94294C188.86 6.10765 189.968 8.83706 189.968 12.1336C189.968 15.6642 188.785 18.4588 186.423 20.5221C184.06 22.5855 180.87 23.6184 176.859 23.6184H174.163L174.161 23.6208ZM174.161 18.2271H176.333C181.676 18.2271 184.347 16.171 184.347 12.0588C184.347 7.94656 181.592 6.09075 176.082 6.09075H174.159V18.2247L174.161 18.2271Z" fill="black"/>
<path d="M287.998 15.8042H304.627V0.723633H310.446V39.2757H304.627V21.2727H287.998V39.2757H282.179V0.723633H287.998V15.8042Z" fill="black"/>
<path d="M218.768 0.723633H214.557L198.88 39.2757H205.128L208.186 31.6449L208.893 29.9411H223.995L224.688 31.6449L227.567 39.2757H233.887L218.768 0.723633ZM216.601 11.1852L221.652 24.1082H211.306L216.601 11.1852Z" fill="black"/>
<path d="M109.9 6.19211V0.723633H88.6274V39.2757H109.9V33.8072H94.4458V21.2727H108.173V15.8042H94.4458V6.19211H109.9Z" fill="black"/>
<path d="M242.807 0.723633V6.19211H252.083V39.2757H257.902V6.19211H267.178V0.723633H242.807Z" fill="black"/>
</g>
<defs>
<clipPath id="clip0_731_693">
<rect width="310.443" height="40" fill="white"/>
</clipPath>
</defs>
</svg>
